{
    "asset" : {
        "generator" : "Khronos glTF Blender I/O v1.3.48",
        "version" : "2.0"
    },
    "scene" : 0,
    "scenes" : [
        {
            "extras" : {
                "glTF2ExportSettings" : {
                    "export_animations" : 0,
                    "export_apply" : 1,
                    "export_cameras" : 1,
                    "export_extras" : 1,
                    "export_format" : "GLTF_EMBEDDED",
                    "export_morph" : 0,
                    "export_skins" : 1,
                    "use_selection" : 1
                }
            },
            "name" : "Scene",
            "nodes" : [
                30
            ]
        }
    ],
    "nodes" : [
        {
            "name" : "Head",
            "rotation" : [
                -0.07669083029031754,
                -6.812352765228624e-12,
                -1.829052109769691e-08,
                0.9970549941062927
            ],
            "scale" : [
                1,
                0.9999999403953552,
                0.9999999403953552
            ],
            "translation" : [
                -1.2967492357685018e-10,
                0.12739041447639465,
                1.1783796161068949e-08
            ]
        },
        {
            "children" : [
                0
            ],
            "name" : "Neck",
            "rotation" : [
                0.18988047540187836,
                -4.2134575778618455e-05,
                8.194067959266249e-06,
                0.9818072319030762
            ],
            "scale" : [
                1,
                0.9999998807907104,
                1
            ],
            "translation" : [
                -7.399361493298784e-06,
                0.46507343649864197,
                0.08596910536289215
            ]
        },
        {
            "name" : "Forearm.L",
            "rotation" : [
                0.09524787962436676,
                -8.033216727199033e-05,
                -0.04159160703420639,
                0.994584321975708
            ],
            "scale" : [
                1.0000004768371582,
                1,
                1.000000238418579
            ],
            "translation" : [
                4.651775498132338e-08,
                0.4354957342147827,
                -2.6485356130478976e-08
            ]
        },
        {
            "children" : [
                2
            ],
            "name" : "Biceps.L",
            "rotation" : [
                -0.17354561388492584,
                0.024781430140137672,
                -0.5600652098655701,
                0.8096882104873657
            ],
            "scale" : [
                0.9999995827674866,
                0.9999994039535522,
                0.9999998211860657
            ],
            "translation" : [
                -1.616325846498512e-07,
                0.20170773565769196,
                2.607444926638891e-09
            ]
        },
        {
            "children" : [
                3
            ],
            "name" : "Arm.L",
            "rotation" : [
                0.08082884550094604,
                -0.06253482401371002,
                -0.7862906455993652,
                0.6093464493751526
            ],
            "scale" : [
                0.9999998807907104,
                1,
                0.9999998807907104
            ],
            "translation" : [
                0.1832752376794815,
                0.35992738604545593,
                0.07143400609493256
            ]
        },
        {
            "name" : "Forearm.R",
            "rotation" : [
                0.09525475651025772,
                8.034206257434562e-05,
                0.04159461334347725,
                0.9945835471153259
            ],
            "scale" : [
                1.000000238418579,
                0.9999996423721313,
                0.9999997019767761
            ],
            "translation" : [
                4.236532546997296e-08,
                0.4354957938194275,
                -3.487124189405222e-08
            ]
        },
        {
            "children" : [
                5
            ],
            "name" : "Biceps.R",
            "rotation" : [
                -0.17354816198349,
                -0.024783706292510033,
                0.5600640177726746,
                0.8096882700920105
            ],
            "scale" : [
                1.000000238418579,
                0.9999999403953552,
                0.9999999403953552
            ],
            "translation" : [
                3.651437552321113e-08,
                0.20170779526233673,
                -2.3870530441172377e-08
            ]
        },
        {
            "children" : [
                6
            ],
            "name" : "Arm.R",
            "rotation" : [
                0.0807611346244812,
                0.0624823160469532,
                0.786297619342804,
                0.6093518733978271
            ],
            "translation" : [
                -0.18682460486888885,
                0.35992738604545593,
                0.07140214741230011
            ]
        },
        {
            "children" : [
                1,
                4,
                7
            ],
            "name" : "Spine.3",
            "rotation" : [
                -0.07453621178865433,
                -0.00016107932606246322,
                -1.845499900809955e-05,
                0.9972183108329773
            ],
            "translation" : [
                2.0464914485263108e-10,
                0.3318540155887604,
                9.714062443322291e-09
            ]
        },
        {
            "children" : [
                8
            ],
            "name" : "Spine.2",
            "rotation" : [
                -0.10162901878356934,
                0.00020338542526587844,
                -2.0801669961656444e-05,
                0.9948223233222961
            ],
            "scale" : [
                1,
                0.9999998211860657,
                0.9999999403953552
            ],
            "translation" : [
                1.1641442670962121e-10,
                0.25288745760917664,
                -4.6561448544413936e-14
            ]
        },
        {
            "name" : "Leg.2.L",
            "rotation" : [
                -1.0921349158365956e-08,
                -2.569992432199797e-07,
                -0.05326385051012039,
                0.9985805153846741
            ],
            "scale" : [
                1.0000001192092896,
                1.000000238418579,
                1
            ],
            "translation" : [
                1.927606696483508e-08,
                0.6711578369140625,
                1.8498225173857463e-10
            ]
        },
        {
            "children" : [
                10
            ],
            "name" : "Leg.1.L",
            "rotation" : [
                0.7035201191902161,
                -0.07105269283056259,
                -0.7035359144210815,
                0.07104992121458054
            ],
            "scale" : [
                1.000000238418579,
                1.000000238418579,
                1.0000132322311401
            ],
            "translation" : [
                0.16073545813560486,
                0.053087737411260605,
                0.05919903144240379
            ]
        },
        {
            "name" : "Leg.2.R",
            "rotation" : [
                -3.8023735271508485e-09,
                3.089283211465954e-07,
                0.05326388031244278,
                0.9985805153846741
            ],
            "scale" : [
                1.000000238418579,
                1.000000238418579,
                1
            ],
            "translation" : [
                -7.568202065044716e-09,
                0.6711577773094177,
                -1.1437208957687517e-09
            ]
        },
        {
            "children" : [
                12
            ],
            "name" : "Leg.1.R",
            "rotation" : [
                0.7035202980041504,
                0.07105247676372528,
                0.703535795211792,
                0.07105055451393127
            ],
            "scale" : [
                1.000000238418579,
                1.0000003576278687,
                1.0000132322311401
            ],
            "translation" : [
                -0.16427254676818848,
                0.05308772996068001,
                0.05919896811246872
            ]
        },
        {
            "children" : [
                9,
                11,
                13
            ],
            "name" : "Spine.1",
            "rotation" : [
                0.07555805146694183,
                1.1886855588727485e-07,
                9.007216306144983e-09,
                0.997141420841217
            ],
            "scale" : [
                1,
                1.0000001192092896,
                1.0000001192092896
            ],
            "translation" : [
                0.0017685480415821075,
                -1.8692875636657085e-19,
                2.804765970736629e-17
            ]
        },
        {
            "name" : "KneeIK.L",
            "rotation" : [
                0.5,
                -0.5000000596046448,
                -0.5000000596046448,
                0.5
            ],
            "translation" : [
                0.16250400245189667,
                -0.6267564296722412,
                0.4085732102394104
            ]
        },
        {
            "name" : "Toes.L",
            "rotation" : [
                -0.00040704855928197503,
                -0.0017622715095058084,
                0.22377324104309082,
                0.9746395945549011
            ],
            "scale" : [
                1,
                0.9999998807907104,
                1
            ],
            "translation" : [
                2.2351741790771484e-08,
                0.24149996042251587,
                -7.566995918750763e-09
            ]
        },
        {
            "children" : [
                16
            ],
            "name" : "Foot.L",
            "rotation" : [
                -0.0017673849361017346,
                0.00040587453986518085,
                0.9746395945549011,
                0.2237732708454132
            ],
            "scale" : [
                1.0000011920928955,
                1.000000238418579,
                1
            ],
            "translation" : [
                -1.8285354030922463e-07,
                1.8767780218809094e-08,
                -1.1354393336659996e-06
            ]
        },
        {
            "children" : [
                17
            ],
            "name" : "HeelIK.L",
            "rotation" : [
                -0.49999988079071045,
                -0.5000001192092896,
                0.5000001192092896,
                0.49999988079071045
            ],
            "scale" : [
                1,
                0.9999999403953552,
                1
            ],
            "translation" : [
                0.16250400245189667,
                -1.2200264930725098,
                0.06652253866195679
            ]
        },
        {
            "name" : "Hand.L",
            "rotation" : [
                0.6879721879959106,
                0.022406648844480515,
                -0.1633840650320053,
                0.7067517042160034
            ],
            "scale" : [
                1.0000001192092896,
                1.0000001192092896,
                1.0000001192092896
            ],
            "translation" : [
                2.8183325184727437e-07,
                -2.7465318908070913e-09,
                -2.163614709616013e-07
            ]
        },
        {
            "children" : [
                19
            ],
            "name" : "WristIK.L",
            "rotation" : [
                -0.0978027954697609,
                0.7003103494644165,
                -0.7003103494644165,
                0.0978027954697609
            ],
            "scale" : [
                1,
                0.9999997019767761,
                1
            ],
            "translation" : [
                0.45853766798973083,
                0.07502400875091553,
                0.0676209032535553
            ]
        },
        {
            "name" : "ElbowIK.L",
            "rotation" : [
                -0.11297028511762619,
                0.6980241537094116,
                -0.6980241537094116,
                0.11297028511762619
            ],
            "translation" : [
                0.42793765664100647,
                0.4766494035720825,
                -0.4623813331127167
            ]
        },
        {
            "name" : "Hand.R",
            "rotation" : [
                0.6879721879959106,
                -0.022406648844480515,
                0.1633840650320053,
                0.7067517042160034
            ],
            "scale" : [
                1.0000001192092896,
                1.0000001192092896,
                1.0000001192092896
            ],
            "translation" : [
                1.4786297697355621e-07,
                6.018375842131718e-08,
                -3.3912704111571657e-07
            ]
        },
        {
            "children" : [
                22
            ],
            "name" : "WristIK.R",
            "rotation" : [
                -0.0978027954697609,
                -0.7003103494644165,
                0.7003103494644165,
                0.0978027954697609
            ],
            "scale" : [
                1,
                0.9999997019767761,
                1
            ],
            "translation" : [
                -0.45853766798973083,
                0.07502400875091553,
                0.0676209032535553
            ]
        },
        {
            "name" : "ElbowIK.R",
            "rotation" : [
                -0.11297028511762619,
                -0.6980241537094116,
                0.6980241537094116,
                0.11297028511762619
            ],
            "translation" : [
                -0.42793765664100647,
                0.4766494035720825,
                -0.4623813331127167
            ]
        },
        {
            "name" : "KneeIK.R",
            "rotation" : [
                0.5,
                0.5000000596046448,
                0.5000000596046448,
                0.5
            ],
            "translation" : [
                -0.16250400245189667,
                -0.6267564296722412,
                0.4085732102394104
            ]
        },
        {
            "name" : "Toes.R",
            "rotation" : [
                -0.00040704855928197503,
                0.0017622715095058084,
                -0.22377324104309082,
                0.9746395945549011
            ],
            "scale" : [
                1,
                0.9999998807907104,
                1
            ],
            "translation" : [
                -2.2351741790771484e-08,
                0.24149996042251587,
                -7.566995918750763e-09
            ]
        },
        {
            "children" : [
                26
            ],
            "name" : "Foot.R",
            "rotation" : [
                -0.0017673849361017346,
                -0.00040587453986518085,
                -0.9746395945549011,
                0.2237732708454132
            ],
            "scale" : [
                1.0000011920928955,
                1.000000238418579,
                1
            ],
            "translation" : [
                7.553492054057642e-08,
                -3.325436637169332e-08,
                -1.1499080301291542e-06
            ]
        },
        {
            "children" : [
                27
            ],
            "name" : "HeelIK.R",
            "rotation" : [
                -0.49999988079071045,
                0.5000001192092896,
                -0.5000001192092896,
                0.49999988079071045
            ],
            "scale" : [
                1,
                0.9999999403953552,
                1
            ],
            "translation" : [
                -0.16250400245189667,
                -1.2200264930725098,
                0.06652253866195679
            ]
        },
        {
            "mesh" : 0,
            "name" : "Body",
            "skin" : 0
        },
        {
            "children" : [
                29,
                14,
                15,
                18,
                20,
                21,
                23,
                24,
                25,
                28
            ],
            "name" : "Armature",
            "translation" : [
                0,
                1.4035987854003906,
                0
            ]
        }
    ],
    "materials" : [
        {
            "doubleSided" : true,
            "extras" : {
                "ProgramType" : "Contour"
            },
            "name" : "Material.001",
            "pbrMetallicRoughness" : {}
        }
    ],
    "meshes" : [
        {
            "name" : "Cube",
            "primitives" : [
                {
                    "attributes" : {
                        "POSITION" : 0,
                        "NORMAL" : 1,
                        "TEXCOORD_0" : 2,
                        "COLOR_0" : 3,
                        "JOINTS_0" : 4,
                        "WEIGHTS_0" : 5
                    },
                    "indices" : 6,
                    "material" : 0
                }
            ]
        }
    ],
    "skins" : [
        {
            "inverseBindMatrices" : 7,
            "joints" : [
                14,
                9,
                8,
                1,
                0,
                4,
                3,
                2,
                7,
                6,
                5,
                11,
                10,
                13,
                12,
                15,
                18,
                17,
                16,
                20,
                19,
                21,
                23,
                22,
                24,
                25,
                28,
                27,
                26
            ],
            "name" : "Armature"
        }
    ],
    "accessors" : [
        {
            "bufferView" : 0,
            "componentType" : 5126,
            "count" : 1107,
            "max" : [
                0.5018765926361084,
                2.9005930423736572,
                0.4155852198600769
            ],
            "min" : [
                -0.5029306411743164,
                0.035738229751586914,
                -0.1991753876209259
            ],
            "type" : "VEC3"
        },
        {
            "bufferView" : 1,
            "componentType" : 5126,
            "count" : 1107,
            "type" : "VEC3"
        },
        {
            "bufferView" : 2,
            "componentType" : 5126,
            "count" : 1107,
            "type" : "VEC2"
        },
        {
            "bufferView" : 3,
            "componentType" : 5126,
            "count" : 1107,
            "type" : "VEC4"
        },
        {
            "bufferView" : 4,
            "componentType" : 5123,
            "count" : 1107,
            "type" : "VEC4"
        },
        {
            "bufferView" : 5,
            "componentType" : 5126,
            "count" : 1107,
            "type" : "VEC4"
        },
        {
            "bufferView" : 6,
            "componentType" : 5123,
            "count" : 5532,
            "type" : "SCALAR"
        },
        {
            "bufferView" : 7,
            "componentType" : 5126,
            "count" : 29,
            "type" : "MAT4"
        }
    ],
    "bufferViews" : [
        {
            "buffer" : 0,
            "byteLength" : 13284,
            "byteOffset" : 0
        },
        {
            "buffer" : 0,
            "byteLength" : 13284,
            "byteOffset" : 13284
        },
        {
            "buffer" : 0,
            "byteLength" : 8856,
            "byteOffset" : 26568
        },
        {
            "buffer" : 0,
            "byteLength" : 17712,
            "byteOffset" : 35424
        },
        {
            "buffer" : 0,
            "byteLength" : 8856,
            "byteOffset" : 53136
        },
        {
            "buffer" : 0,
            "byteLength" : 17712,
            "byteOffset" : 61992
        },
        {
            "buffer" : 0,
            "byteLength" : 11064,
            "byteOffset" : 79704
        },
        {
            "buffer" : 0,
            "byteLength" : 1856,
            "byteOffset" : 90768
        }
    ],
    "buffers" : [
        {
            "byteLength" : 92624,
            "uri" : "data:application/octet-stream;base64,"
        }
    ]
}
