{
    "asset" : {
        "generator" : "Khronos glTF Blender I/O v1.3.48",
        "version" : "2.0"
    },
    "scene" : 0,
    "scenes" : [
        {
            "extras" : {
                "glTF2ExportSettings" : {
                    "export_animations" : 0,
                    "export_apply" : 1,
                    "export_cameras" : 1,
                    "export_extras" : 1,
                    "export_format" : "GLTF_EMBEDDED",
                    "export_morph" : 0,
                    "export_skins" : 1,
                    "use_selection" : 1
                }
            },
            "name" : "Scene",
            "nodes" : [
                1,
                24
            ]
        }
    ],
    "nodes" : [
        {
            "camera" : 0,
            "name" : "Camera_Orientation",
            "rotation" : [
                -0.7071067690849304,
                0,
                0,
                0.7071067690849304
            ]
        },
        {
            "children" : [
                0
            ],
            "name" : "Camera",
            "rotation" : [
                0.5605834126472473,
                0.2317151427268982,
                -0.1671166718006134,
                0.777255654335022
            ],
            "translation" : [
                11.864341735839844,
                9.15517520904541,
                18.03701400756836
            ]
        },
        {
            "name" : "Head",
            "rotation" : [
                -0.07669083029031754,
                -6.812352765228624e-12,
                -1.829052109769691e-08,
                0.9970549941062927
            ],
            "scale" : [
                1,
                0.9999999403953552,
                0.9999999403953552
            ],
            "translation" : [
                -1.2967492357685018e-10,
                0.12739041447639465,
                1.1783796161068949e-08
            ]
        },
        {
            "children" : [
                2
            ],
            "name" : "Neck",
            "rotation" : [
                0.18988047540187836,
                -4.2134575778618455e-05,
                8.194067959266249e-06,
                0.9818072319030762
            ],
            "scale" : [
                1,
                0.9999998807907104,
                1
            ],
            "translation" : [
                -7.399361493298784e-06,
                0.46507343649864197,
                0.08596910536289215
            ]
        },
        {
            "name" : "Hand.L",
            "rotation" : [
                0.7318048477172852,
                -0.035793524235486984,
                -0.1675986349582672,
                0.6596144437789917
            ],
            "scale" : [
                1,
                1.000000238418579,
                1.0000003576278687
            ],
            "translation" : [
                -3.642693702232691e-09,
                0.40504369139671326,
                -7.148075553686795e-08
            ]
        },
        {
            "children" : [
                4
            ],
            "name" : "Forearm.L",
            "rotation" : [
                0.7917866706848145,
                -0.07337358593940735,
                -0.1760500967502594,
                0.5802555680274963
            ],
            "scale" : [
                1.0000001192092896,
                1.000000238418579,
                1.000000238418579
            ],
            "translation" : [
                2.174910740393443e-08,
                0.4354957938194275,
                -1.4960141569986263e-08
            ]
        },
        {
            "children" : [
                5
            ],
            "name" : "Biceps.L",
            "rotation" : [
                -0.23789379000663757,
                -0.0636642798781395,
                -0.5456591844558716,
                0.8010052442550659
            ],
            "scale" : [
                1,
                0.9999998211860657,
                1
            ],
            "translation" : [
                -9.473539108739715e-08,
                0.20170773565769196,
                1.3564838141633118e-09
            ]
        },
        {
            "children" : [
                6
            ],
            "name" : "Arm.L",
            "rotation" : [
                0.08082884550094604,
                -0.06253482401371002,
                -0.7862906455993652,
                0.6093464493751526
            ],
            "scale" : [
                0.9999998807907104,
                1,
                0.9999998807907104
            ],
            "translation" : [
                0.1832752376794815,
                0.35992738604545593,
                0.07143400609493256
            ]
        },
        {
            "name" : "Hand.R",
            "rotation" : [
                -0.05799059197306633,
                0.001671524252742529,
                0.020452532917261124,
                0.9981063008308411
            ],
            "scale" : [
                1,
                1,
                1.0000001192092896
            ],
            "translation" : [
                -6.516748385365645e-08,
                0.4050436317920685,
                8.552039965081804e-09
            ]
        },
        {
            "children" : [
                8
            ],
            "name" : "Forearm.R",
            "rotation" : [
                0.09525210410356522,
                8.033337508095428e-05,
                0.04159345477819443,
                0.9945838451385498
            ],
            "scale" : [
                1,
                0.9999999403953552,
                0.9999998807907104
            ],
            "translation" : [
                -6.933360552352497e-09,
                0.43549585342407227,
                -1.978336827690441e-09
            ]
        },
        {
            "children" : [
                9
            ],
            "name" : "Biceps.R",
            "rotation" : [
                0.3874298334121704,
                0.5481494069099426,
                0.4195159673690796,
                0.6110947132110596
            ],
            "scale" : [
                1,
                1,
                0.9999999403953552
            ],
            "translation" : [
                -1.8569011217550724e-08,
                0.20170782506465912,
                -3.5898267469747225e-08
            ]
        },
        {
            "children" : [
                10
            ],
            "name" : "Arm.R",
            "rotation" : [
                0.0807611346244812,
                0.0624823160469532,
                0.786297619342804,
                0.6093518733978271
            ],
            "translation" : [
                -0.18682460486888885,
                0.35992738604545593,
                0.07140214741230011
            ]
        },
        {
            "children" : [
                3,
                7,
                11
            ],
            "name" : "Spine.3",
            "rotation" : [
                -0.07453621178865433,
                -0.00016107932606246322,
                -1.845499900809955e-05,
                0.9972183108329773
            ],
            "translation" : [
                2.0464914485263108e-10,
                0.3318540155887604,
                9.714062443322291e-09
            ]
        },
        {
            "children" : [
                12
            ],
            "name" : "Spine.2",
            "rotation" : [
                -0.10162901878356934,
                0.00020338542526587844,
                -2.0801669961656444e-05,
                0.9948223233222961
            ],
            "scale" : [
                1,
                0.9999998211860657,
                0.9999999403953552
            ],
            "translation" : [
                1.1641442670962121e-10,
                0.25288745760917664,
                -4.6561448544413936e-14
            ]
        },
        {
            "name" : "Toes.L",
            "rotation" : [
                -0.00040723985875956714,
                -0.0017622116720303893,
                0.2237735241651535,
                0.9746395349502563
            ],
            "scale" : [
                1,
                1,
                0.9999999403953552
            ],
            "translation" : [
                3.5332050174474716e-08,
                0.2414998561143875,
                7.246853783726692e-09
            ]
        },
        {
            "children" : [
                14
            ],
            "name" : "Foot.L",
            "rotation" : [
                0.00015963969053700566,
                0.0018069648649543524,
                -0.08824121206998825,
                0.9960975050926208
            ],
            "scale" : [
                0.9999999403953552,
                0.9999999403953552,
                0.9999999403953552
            ],
            "translation" : [
                4.541850273653836e-08,
                0.5942188501358032,
                6.862227230897133e-09
            ]
        },
        {
            "children" : [
                15
            ],
            "name" : "Leg.2.L",
            "rotation" : [
                -3.386759601653466e-07,
                -4.7653404067204974e-07,
                -0.6413804888725281,
                0.7672230005264282
            ],
            "translation" : [
                1.2936276050368178e-08,
                0.6711577773094177,
                1.8498191867166724e-10
            ]
        },
        {
            "children" : [
                16
            ],
            "name" : "Leg.1.L",
            "rotation" : [
                0.7035266160964966,
                -0.0710502415895462,
                -0.7035297155380249,
                0.0710497573018074
            ],
            "scale" : [
                1,
                1.0000001192092896,
                1.0000044107437134
            ],
            "translation" : [
                0.16073545813560486,
                0.053087737411260605,
                0.05919903144240379
            ]
        },
        {
            "name" : "Toes.R",
            "rotation" : [
                -0.00040723977144807577,
                0.0017622116720303893,
                -0.2237735241651535,
                0.9746395349502563
            ],
            "scale" : [
                1,
                1,
                0.9999999403953552
            ],
            "translation" : [
                4.059640090758876e-08,
                0.24149994552135468,
                2.1081019596635997e-08
            ]
        },
        {
            "children" : [
                18
            ],
            "name" : "Foot.R",
            "rotation" : [
                -0.0010060312924906611,
                -0.0015095430426299572,
                -0.5546773672103882,
                0.8320635557174683
            ],
            "scale" : [
                0.9999999403953552,
                0.9999999403953552,
                0.9999998807907104
            ],
            "translation" : [
                4.1690721985787604e-08,
                0.5942189693450928,
                7.00588653756995e-09
            ]
        },
        {
            "children" : [
                19
            ],
            "name" : "Leg.2.R",
            "rotation" : [
                -3.550285043729673e-07,
                5.250857384453411e-07,
                0.6866347193717957,
                0.7270025610923767
            ],
            "scale" : [
                1,
                1.0000001192092896,
                1
            ],
            "translation" : [
                -1.5988632640073774e-10,
                0.6711577773094177,
                -1.1437255587054551e-09
            ]
        },
        {
            "children" : [
                20
            ],
            "name" : "Leg.1.R",
            "rotation" : [
                0.47349852323532104,
                0.5251656174659729,
                0.4734985828399658,
                0.5251661539077759
            ],
            "scale" : [
                1.0000001192092896,
                1,
                1.0000044107437134
            ],
            "translation" : [
                -0.16427254676818848,
                0.05308772251009941,
                0.059198956936597824
            ]
        },
        {
            "children" : [
                13,
                17,
                21
            ],
            "name" : "Spine.1",
            "rotation" : [
                0.07555805146694183,
                1.1886855588727485e-07,
                9.007216306144983e-09,
                0.997141420841217
            ],
            "scale" : [
                1,
                1.0000001192092896,
                1.0000001192092896
            ],
            "translation" : [
                0.0017685480415821075,
                -1.8692875636657085e-19,
                2.804765970736629e-17
            ]
        },
        {
            "mesh" : 0,
            "name" : "Body",
            "skin" : 0
        },
        {
            "children" : [
                23,
                22
            ],
            "name" : "Armature",
            "translation" : [
                0,
                1.383240818977356,
                0
            ]
        }
    ],
    "cameras" : [
        {
            "name" : "Camera.002",
            "perspective" : {
                "aspectRatio" : 1.7777777777777777,
                "yfov" : 0.15545541313345093,
                "zfar" : 1000,
                "znear" : 0.10000000149011612
            },
            "type" : "perspective"
        }
    ],
    "materials" : [
        {
            "doubleSided" : true,
            "extras" : {
                "ProgramType" : "Contour"
            },
            "name" : "Material.001",
            "pbrMetallicRoughness" : {}
        }
    ],
    "meshes" : [
        {
            "name" : "Cube",
            "primitives" : [
                {
                    "attributes" : {
                        "POSITION" : 0,
                        "NORMAL" : 1,
                        "TEXCOORD_0" : 2,
                        "COLOR_0" : 3,
                        "JOINTS_0" : 4,
                        "WEIGHTS_0" : 5
                    },
                    "indices" : 6,
                    "material" : 0
                }
            ]
        }
    ],
    "skins" : [
        {
            "inverseBindMatrices" : 7,
            "joints" : [
                22,
                13,
                12,
                3,
                2,
                7,
                6,
                5,
                4,
                11,
                10,
                9,
                8,
                17,
                16,
                15,
                14,
                21,
                20,
                19,
                18
            ],
            "name" : "Armature"
        }
    ],
    "accessors" : [
        {
            "bufferView" : 0,
            "componentType" : 5126,
            "count" : 1107,
            "max" : [
                0.5018765926361084,
                2.880235195159912,
                0.4155852198600769
            ],
            "min" : [
                -0.5034612417221069,
                0.015380382537841797,
                -0.1991753876209259
            ],
            "type" : "VEC3"
        },
        {
            "bufferView" : 1,
            "componentType" : 5126,
            "count" : 1107,
            "type" : "VEC3"
        },
        {
            "bufferView" : 2,
            "componentType" : 5126,
            "count" : 1107,
            "type" : "VEC2"
        },
        {
            "bufferView" : 3,
            "componentType" : 5126,
            "count" : 1107,
            "type" : "VEC4"
        },
        {
            "bufferView" : 4,
            "componentType" : 5123,
            "count" : 1107,
            "type" : "VEC4"
        },
        {
            "bufferView" : 5,
            "componentType" : 5126,
            "count" : 1107,
            "type" : "VEC4"
        },
        {
            "bufferView" : 6,
            "componentType" : 5123,
            "count" : 5532,
            "type" : "SCALAR"
        },
        {
            "bufferView" : 7,
            "componentType" : 5126,
            "count" : 21,
            "type" : "MAT4"
        }
    ],
    "bufferViews" : [
        {
            "buffer" : 0,
            "byteLength" : 13284,
            "byteOffset" : 0
        },
        {
            "buffer" : 0,
            "byteLength" : 13284,
            "byteOffset" : 13284
        },
        {
            "buffer" : 0,
            "byteLength" : 8856,
            "byteOffset" : 26568
        },
        {
            "buffer" : 0,
            "byteLength" : 17712,
            "byteOffset" : 35424
        },
        {
            "buffer" : 0,
            "byteLength" : 8856,
            "byteOffset" : 53136
        },
        {
            "buffer" : 0,
            "byteLength" : 17712,
            "byteOffset" : 61992
        },
        {
            "buffer" : 0,
            "byteLength" : 11064,
            "byteOffset" : 79704
        },
        {
            "buffer" : 0,
            "byteLength" : 1344,
            "byteOffset" : 90768
        }
    ],
    "buffers" : [
        {
            "byteLength" : 92112,
            "uri" : "data:application/octet-stream;base64,"
        }
    ]
}
