{
    "asset" : {
        "generator" : "Khronos glTF Blender I/O v1.3.48",
        "version" : "2.0"
    },
    "scene" : 0,
    "scenes" : [
        {
            "extras" : {
                "glTF2ExportSettings" : {
                    "export_animations" : 0,
                    "export_apply" : 1,
                    "export_cameras" : 1,
                    "export_extras" : 1,
                    "export_format" : "GLTF_EMBEDDED",
                    "export_morph" : 0,
                    "export_skins" : 1,
                    "use_selection" : 1
                }
            },
            "name" : "Scene",
            "nodes" : [
                0,
                2,
                25,
                26
            ]
        }
    ],
    "nodes" : [
        {
            "mesh" : 0,
            "name" : "Cone",
            "scale" : [
                0.9043155312538147,
                0.3822924494743347,
                0.9043155312538147
            ],
            "translation" : [
                0,
                0.3921671211719513,
                2.3893656730651855
            ]
        },
        {
            "camera" : 0,
            "name" : "Camera_Orientation",
            "rotation" : [
                -0.7071067690849304,
                0,
                0,
                0.7071067690849304
            ]
        },
        {
            "children" : [
                1
            ],
            "name" : "Camera",
            "rotation" : [
                0.5623546838760376,
                0.30016469955444336,
                -0.22949235141277313,
                0.7355213761329651
            ],
            "translation" : [
                19.54093360900879,
                9.029213905334473,
                20.372480392456055
            ]
        },
        {
            "name" : "Head",
            "rotation" : [
                -0.354814738035202,
                -1.4071219883726727e-11,
                -8.45890113509995e-08,
                0.9349366426467896
            ],
            "scale" : [
                1,
                1,
                0.9999999403953552
            ],
            "translation" : [
                1.0315566456586822e-10,
                0.12739041447639465,
                -6.853644762827571e-09
            ]
        },
        {
            "children" : [
                3
            ],
            "name" : "Neck",
            "rotation" : [
                0.18988047540187836,
                -4.2134575778618455e-05,
                8.194067959266249e-06,
                0.9818072319030762
            ],
            "scale" : [
                1,
                0.9999998807907104,
                1
            ],
            "translation" : [
                -7.39912866265513e-06,
                0.46507343649864197,
                0.08596910536289215
            ]
        },
        {
            "name" : "Hand.L",
            "rotation" : [
                -0.05799056589603424,
                -0.0016715382225811481,
                -0.020452536642551422,
                0.9981062412261963
            ],
            "scale" : [
                0.9999999403953552,
                0.9999999403953552,
                0.9999999403953552
            ],
            "translation" : [
                2.6080625659119505e-08,
                0.40504369139671326,
                -1.580740693896132e-08
            ]
        },
        {
            "children" : [
                5
            ],
            "name" : "Forearm.L",
            "rotation" : [
                0.09525209665298462,
                -8.032085315790027e-05,
                -0.041593458503484726,
                0.9945838451385498
            ],
            "scale" : [
                1.0000001192092896,
                1.0000001192092896,
                1
            ],
            "translation" : [
                -7.769420662384618e-09,
                0.4354957938194275,
                -3.667490844350141e-08
            ]
        },
        {
            "children" : [
                6
            ],
            "name" : "Biceps.L",
            "rotation" : [
                -0.23789379000663757,
                -0.06366429477930069,
                -0.5456591844558716,
                0.8010053038597107
            ],
            "scale" : [
                1,
                0.9999998807907104,
                1
            ],
            "translation" : [
                1.425695117518444e-08,
                0.20170776546001434,
                -2.9245875055039505e-08
            ]
        },
        {
            "children" : [
                7
            ],
            "name" : "Arm.L",
            "rotation" : [
                0.08082882314920425,
                -0.06253481656312943,
                -0.78629070520401,
                0.6093464493751526
            ],
            "scale" : [
                1.0000001192092896,
                1.0000001192092896,
                1
            ],
            "translation" : [
                0.18327520787715912,
                0.35992738604545593,
                0.07143401354551315
            ]
        },
        {
            "name" : "Hand.R",
            "rotation" : [
                -0.057990577071905136,
                0.0016715312376618385,
                0.020452529191970825,
                0.9981063008308411
            ],
            "scale" : [
                1.0000001192092896,
                1.0000001192092896,
                1.0000001192092896
            ],
            "translation" : [
                -3.661279279754126e-08,
                0.40504366159439087,
                4.933979003141076e-09
            ]
        },
        {
            "children" : [
                9
            ],
            "name" : "Forearm.R",
            "rotation" : [
                0.7138141989707947,
                0.06468085944652557,
                0.16213729977607727,
                0.6782309412956238
            ],
            "scale" : [
                0.9999999403953552,
                1,
                1
            ],
            "translation" : [
                1.0321294929838132e-08,
                0.4354958236217499,
                -1.482494393911793e-08
            ]
        },
        {
            "children" : [
                10
            ],
            "name" : "Biceps.R",
            "rotation" : [
                -0.2378937304019928,
                0.06366423517465591,
                0.5456593632698059,
                0.8010051846504211
            ],
            "scale" : [
                1.0000001192092896,
                0.9999999403953552,
                0.9999998807907104
            ],
            "translation" : [
                8.98361420809124e-08,
                0.20170778036117554,
                -2.0224790731049325e-09
            ]
        },
        {
            "children" : [
                11
            ],
            "name" : "Arm.R",
            "rotation" : [
                0.0807611271739006,
                0.062482304871082306,
                0.786297619342804,
                0.6093518733978271
            ],
            "scale" : [
                1.0000001192092896,
                1,
                1.0000001192092896
            ],
            "translation" : [
                -0.18682463467121124,
                0.3599274456501007,
                0.07140211760997772
            ]
        },
        {
            "children" : [
                4,
                8,
                12
            ],
            "name" : "Spine.3",
            "rotation" : [
                -0.07453620433807373,
                -0.00016107932606246322,
                -1.845499900809955e-05,
                0.9972183108329773
            ],
            "translation" : [
                2.0761550811876361e-10,
                0.3318540155887604,
                5.043188089359774e-10
            ]
        },
        {
            "children" : [
                13
            ],
            "name" : "Spine.2",
            "rotation" : [
                0.1325216293334961,
                0.00020264081831555814,
                2.7124817279400304e-05,
                0.9911801815032959
            ],
            "scale" : [
                1,
                0.9999998211860657,
                1
            ],
            "translation" : [
                1.1641442670962121e-10,
                0.25288745760917664,
                -4.6561448544413936e-14
            ]
        },
        {
            "name" : "Toes.L",
            "rotation" : [
                -0.00040723991696722806,
                -0.001762211904861033,
                0.2237735539674759,
                0.9746395945549011
            ],
            "scale" : [
                0.9999999403953552,
                0.9999999403953552,
                0.9999999403953552
            ],
            "translation" : [
                -9.143724355453742e-08,
                0.24149984121322632,
                6.788348549946477e-09
            ]
        },
        {
            "children" : [
                15
            ],
            "name" : "Foot.L",
            "rotation" : [
                -0.001006032107397914,
                0.001509542460553348,
                0.5546773076057434,
                0.832063615322113
            ],
            "scale" : [
                0.9999998211860657,
                0.9999997615814209,
                0.9999998807907104
            ],
            "translation" : [
                5.68823175228772e-08,
                0.594218909740448,
                6.75410083417205e-09
            ]
        },
        {
            "children" : [
                16
            ],
            "name" : "Leg.2.L",
            "rotation" : [
                -1.0920218507237678e-08,
                -2.569993569068174e-07,
                -0.05325760319828987,
                0.998580813407898
            ],
            "translation" : [
                2.882143057547637e-08,
                0.671157717704773,
                1.8499309029085254e-10
            ]
        },
        {
            "children" : [
                17
            ],
            "name" : "Leg.1.L",
            "rotation" : [
                0.3979940712451935,
                -0.5844659805297852,
                -0.39799392223358154,
                0.5844664573669434
            ],
            "scale" : [
                1.0000001192092896,
                1,
                1.0000044107437134
            ],
            "translation" : [
                0.16073545813560486,
                0.053087715059518814,
                0.0591990202665329
            ]
        },
        {
            "name" : "Toes.R",
            "rotation" : [
                -0.00040723977144807577,
                0.0017622116720303893,
                -0.2237735241651535,
                0.9746395349502563
            ],
            "scale" : [
                1,
                1,
                0.9999999403953552
            ],
            "translation" : [
                -3.887468125185478e-11,
                0.24150000512599945,
                2.122773778978626e-08
            ]
        },
        {
            "children" : [
                19
            ],
            "name" : "Foot.R",
            "rotation" : [
                -0.001006031408905983,
                -0.001509543159045279,
                -0.5546773672103882,
                0.8320635557174683
            ],
            "scale" : [
                1,
                1.0000001192092896,
                0.9999998807907104
            ],
            "translation" : [
                7.2576988863204406e-09,
                0.5942190289497375,
                3.648363033903479e-08
            ]
        },
        {
            "children" : [
                20
            ],
            "name" : "Leg.2.R",
            "rotation" : [
                -3.802107961803358e-09,
                3.0892846325514256e-07,
                0.053257618099451065,
                0.998580813407898
            ],
            "translation" : [
                -7.568202065044716e-09,
                0.6711577773094177,
                -1.1437208957687517e-09
            ]
        },
        {
            "children" : [
                21
            ],
            "name" : "Leg.1.R",
            "rotation" : [
                0.7035265564918518,
                0.07105022668838501,
                0.7035297751426697,
                0.07104980945587158
            ],
            "scale" : [
                1,
                1.0000001192092896,
                1.0000044107437134
            ],
            "translation" : [
                -0.16427254676818848,
                0.053087733685970306,
                0.05919896066188812
            ]
        },
        {
            "children" : [
                14,
                18,
                22
            ],
            "name" : "Spine.1",
            "rotation" : [
                0.07555805146694183,
                1.1886855588727485e-07,
                9.007216306144983e-09,
                0.997141420841217
            ],
            "scale" : [
                1,
                1.0000001192092896,
                1.0000001192092896
            ],
            "translation" : [
                0.0017685480415821075,
                -1.8692875636657085e-19,
                2.804765970736629e-17
            ]
        },
        {
            "mesh" : 1,
            "name" : "Body",
            "skin" : 0
        },
        {
            "children" : [
                24,
                23
            ],
            "name" : "Armature",
            "translation" : [
                0,
                1.3538448810577393,
                0
            ]
        },
        {
            "mesh" : 2,
            "name" : "Cube.010",
            "scale" : [
                0.13951300084590912,
                0.13951300084590912,
                0.13951298594474792
            ]
        }
    ],
    "cameras" : [
        {
            "name" : "Camera.002",
            "perspective" : {
                "aspectRatio" : 1.7777777777777777,
                "yfov" : 0.15545541313345093,
                "zfar" : 1000,
                "znear" : 0.10000000149011612
            },
            "type" : "perspective"
        }
    ],
    "materials" : [
        {
            "doubleSided" : true,
            "extras" : {
                "ProgramType" : "Contour"
            },
            "name" : "Material.001",
            "pbrMetallicRoughness" : {}
        }
    ],
    "meshes" : [
        {
            "name" : "Cone",
            "primitives" : [
                {
                    "attributes" : {
                        "POSITION" : 0,
                        "NORMAL" : 1,
                        "TEXCOORD_0" : 2,
                        "COLOR_0" : 3
                    },
                    "indices" : 4,
                    "material" : 0
                }
            ]
        },
        {
            "name" : "Cube",
            "primitives" : [
                {
                    "attributes" : {
                        "POSITION" : 5,
                        "NORMAL" : 6,
                        "TEXCOORD_0" : 7,
                        "COLOR_0" : 8,
                        "JOINTS_0" : 9,
                        "WEIGHTS_0" : 10
                    },
                    "indices" : 11,
                    "material" : 0
                }
            ]
        },
        {
            "name" : "Cube.012",
            "primitives" : [
                {
                    "attributes" : {
                        "POSITION" : 13,
                        "NORMAL" : 14,
                        "TEXCOORD_0" : 15
                    },
                    "indices" : 16,
                    "material" : 0
                }
            ]
        }
    ],
    "skins" : [
        {
            "inverseBindMatrices" : 12,
            "joints" : [
                23,
                14,
                13,
                4,
                3,
                8,
                7,
                6,
                5,
                12,
                11,
                10,
                9,
                18,
                17,
                16,
                15,
                22,
                21,
                20,
                19
            ],
            "name" : "Armature"
        }
    ],
    "accessors" : [
        {
            "bufferView" : 0,
            "componentType" : 5126,
            "count" : 128,
            "max" : [
                1,
                1,
                1
            ],
            "min" : [
                -1,
                -1,
                -1
            ],
            "type" : "VEC3"
        },
        {
            "bufferView" : 1,
            "componentType" : 5126,
            "count" : 128,
            "type" : "VEC3"
        },
        {
            "bufferView" : 2,
            "componentType" : 5126,
            "count" : 128,
            "type" : "VEC2"
        },
        {
            "bufferView" : 3,
            "componentType" : 5126,
            "count" : 128,
            "type" : "VEC4"
        },
        {
            "bufferView" : 4,
            "componentType" : 5123,
            "count" : 186,
            "type" : "SCALAR"
        },
        {
            "bufferView" : 5,
            "componentType" : 5126,
            "count" : 1107,
            "max" : [
                0.5018765926361084,
                2.850839138031006,
                0.4155852198600769
            ],
            "min" : [
                -0.5029306411743164,
                -0.014015674591064453,
                -0.1991753876209259
            ],
            "type" : "VEC3"
        },
        {
            "bufferView" : 6,
            "componentType" : 5126,
            "count" : 1107,
            "type" : "VEC3"
        },
        {
            "bufferView" : 7,
            "componentType" : 5126,
            "count" : 1107,
            "type" : "VEC2"
        },
        {
            "bufferView" : 8,
            "componentType" : 5126,
            "count" : 1107,
            "type" : "VEC4"
        },
        {
            "bufferView" : 9,
            "componentType" : 5123,
            "count" : 1107,
            "type" : "VEC4"
        },
        {
            "bufferView" : 10,
            "componentType" : 5126,
            "count" : 1107,
            "type" : "VEC4"
        },
        {
            "bufferView" : 11,
            "componentType" : 5123,
            "count" : 5532,
            "type" : "SCALAR"
        },
        {
            "bufferView" : 12,
            "componentType" : 5126,
            "count" : 21,
            "type" : "MAT4"
        },
        {
            "bufferView" : 13,
            "componentType" : 5126,
            "count" : 24,
            "max" : [
                1,
                1,
                1
            ],
            "min" : [
                -1,
                -1,
                -1
            ],
            "type" : "VEC3"
        },
        {
            "bufferView" : 14,
            "componentType" : 5126,
            "count" : 24,
            "type" : "VEC3"
        },
        {
            "bufferView" : 15,
            "componentType" : 5126,
            "count" : 24,
            "type" : "VEC2"
        },
        {
            "bufferView" : 16,
            "componentType" : 5123,
            "count" : 36,
            "type" : "SCALAR"
        }
    ],
    "bufferViews" : [
        {
            "buffer" : 0,
            "byteLength" : 1536,
            "byteOffset" : 0
        },
        {
            "buffer" : 0,
            "byteLength" : 1536,
            "byteOffset" : 1536
        },
        {
            "buffer" : 0,
            "byteLength" : 1024,
            "byteOffset" : 3072
        },
        {
            "buffer" : 0,
            "byteLength" : 2048,
            "byteOffset" : 4096
        },
        {
            "buffer" : 0,
            "byteLength" : 372,
            "byteOffset" : 6144
        },
        {
            "buffer" : 0,
            "byteLength" : 13284,
            "byteOffset" : 6516
        },
        {
            "buffer" : 0,
            "byteLength" : 13284,
            "byteOffset" : 19800
        },
        {
            "buffer" : 0,
            "byteLength" : 8856,
            "byteOffset" : 33084
        },
        {
            "buffer" : 0,
            "byteLength" : 17712,
            "byteOffset" : 41940
        },
        {
            "buffer" : 0,
            "byteLength" : 8856,
            "byteOffset" : 59652
        },
        {
            "buffer" : 0,
            "byteLength" : 17712,
            "byteOffset" : 68508
        },
        {
            "buffer" : 0,
            "byteLength" : 11064,
            "byteOffset" : 86220
        },
        {
            "buffer" : 0,
            "byteLength" : 1344,
            "byteOffset" : 97284
        },
        {
            "buffer" : 0,
            "byteLength" : 288,
            "byteOffset" : 98628
        },
        {
            "buffer" : 0,
            "byteLength" : 288,
            "byteOffset" : 98916
        },
        {
            "buffer" : 0,
            "byteLength" : 192,
            "byteOffset" : 99204
        },
        {
            "buffer" : 0,
            "byteLength" : 72,
            "byteOffset" : 99396
        }
    ],
    "buffers" : [
        {
            "byteLength" : 99468,
            "uri" : "data:application/octet-stream;base64,"
        }
    ]
}
