{
    "asset" : {
        "generator" : "Khronos glTF Blender I/O v1.3.48",
        "version" : "2.0"
    },
    "scene" : 0,
    "scenes" : [
        {
            "extras" : {
                "glTF2ExportSettings" : {
                    "export_animations" : 0,
                    "export_apply" : 1,
                    "export_cameras" : 1,
                    "export_extras" : 1,
                    "export_format" : "GLTF_EMBEDDED",
                    "export_morph" : 0,
                    "export_skins" : 1,
                    "use_selection" : 1
                }
            },
            "name" : "Scene",
            "nodes" : [
                1,
                24
            ]
        }
    ],
    "nodes" : [
        {
            "camera" : 0,
            "name" : "Camera_Orientation",
            "rotation" : [
                -0.7071067690849304,
                0,
                0,
                0.7071067690849304
            ]
        },
        {
            "children" : [
                0
            ],
            "name" : "Camera",
            "rotation" : [
                0.5623546838760376,
                0.30016469955444336,
                -0.22949235141277313,
                0.7355213761329651
            ],
            "translation" : [
                19.54093360900879,
                9.029213905334473,
                20.372480392456055
            ]
        },
        {
            "name" : "Head",
            "rotation" : [
                -0.3548148274421692,
                -1.55228017939546e-11,
                -8.45822398787277e-08,
                0.9349365830421448
            ],
            "scale" : [
                1,
                0.9999999403953552,
                0.9999999403953552
            ],
            "translation" : [
                4.840002704176172e-11,
                0.1273900866508484,
                1.621405658625008e-07
            ]
        },
        {
            "children" : [
                2
            ],
            "name" : "Neck",
            "rotation" : [
                0.18988056480884552,
                -4.2134564864682034e-05,
                8.194055226340424e-06,
                0.9818072319030762
            ],
            "scale" : [
                1,
                0.9999998807907104,
                0.9999999403953552
            ],
            "translation" : [
                -7.3992428042402025e-06,
                0.4650733172893524,
                0.08596910536289215
            ]
        },
        {
            "name" : "Hand.L",
            "rotation" : [
                -0.05799058824777603,
                -0.0016715406673029065,
                -0.020452529191970825,
                0.9981062412261963
            ],
            "scale" : [
                0.9999999403953552,
                1,
                1
            ],
            "translation" : [
                4.511304041443509e-08,
                0.4050438702106476,
                2.4169443335608776e-08
            ]
        },
        {
            "children" : [
                4
            ],
            "name" : "Forearm.L",
            "rotation" : [
                0.095252126455307,
                -8.032167534111068e-05,
                -0.04159345477819443,
                0.9945838451385498
            ],
            "scale" : [
                1,
                1,
                0.9999998807907104
            ],
            "translation" : [
                -6.161560150985679e-08,
                0.43549540638923645,
                -9.25225265291374e-08
            ]
        },
        {
            "children" : [
                5
            ],
            "name" : "Biceps.L",
            "rotation" : [
                -0.23789383471012115,
                -0.0636642649769783,
                -0.5456593632698059,
                0.8010051846504211
            ],
            "scale" : [
                1.0000001192092896,
                0.9999999403953552,
                1.0000001192092896
            ],
            "translation" : [
                -1.3634438289500395e-07,
                0.2017076313495636,
                6.615338321580566e-08
            ]
        },
        {
            "children" : [
                6
            ],
            "name" : "Arm.L",
            "rotation" : [
                0.08082884550094604,
                -0.06253484636545181,
                -0.78629070520401,
                0.6093465685844421
            ],
            "scale" : [
                1.0000001192092896,
                1,
                0.9999998211860657
            ],
            "translation" : [
                0.1832752376794815,
                0.3599274456501007,
                0.07143398374319077
            ]
        },
        {
            "name" : "Hand.R",
            "rotation" : [
                -0.05799054726958275,
                0.0016715371748432517,
                0.020452532917261124,
                0.9981062412261963
            ],
            "scale" : [
                1,
                1.0000001192092896,
                1.0000001192092896
            ],
            "translation" : [
                3.1299376423987724e-09,
                0.40504348278045654,
                1.172123234027822e-07
            ]
        },
        {
            "children" : [
                8
            ],
            "name" : "Forearm.R",
            "rotation" : [
                0.7138141989707947,
                0.06468082964420319,
                0.16213731467723846,
                0.6782309412956238
            ],
            "scale" : [
                1,
                0.9999998807907104,
                1
            ],
            "translation" : [
                1.650095704519572e-08,
                0.4354963004589081,
                -1.497442880804556e-08
            ]
        },
        {
            "children" : [
                9
            ],
            "name" : "Biceps.R",
            "rotation" : [
                -0.23789379000663757,
                0.06366418302059174,
                0.5456594824790955,
                0.8010051250457764
            ],
            "scale" : [
                1.000000238418579,
                1.0000001192092896,
                1
            ],
            "translation" : [
                -7.547222935500031e-08,
                0.2017078399658203,
                1.5014802556834184e-07
            ]
        },
        {
            "children" : [
                10
            ],
            "name" : "Arm.R",
            "rotation" : [
                0.08076115697622299,
                0.062482330948114395,
                0.7862975597381592,
                0.6093519926071167
            ],
            "scale" : [
                0.9999999403953552,
                0.9999999403953552,
                1
            ],
            "translation" : [
                -0.1868247091770172,
                0.3599279224872589,
                0.07140219211578369
            ]
        },
        {
            "children" : [
                3,
                7,
                11
            ],
            "name" : "Spine.3",
            "rotation" : [
                -0.07453623414039612,
                -0.00016107932606246322,
                -1.8455000827088952e-05,
                0.9972183108329773
            ],
            "translation" : [
                9.458744898438454e-11,
                0.3318541944026947,
                6.44121200821246e-09
            ]
        },
        {
            "children" : [
                12
            ],
            "name" : "Spine.2",
            "rotation" : [
                0.1325216293334961,
                0.0002026408037636429,
                2.7124828193336725e-05,
                0.9911801815032959
            ],
            "scale" : [
                1,
                0.9999998211860657,
                1
            ],
            "translation" : [
                1.2551426564755275e-10,
                0.25288763642311096,
                -1.638650637403316e-08
            ]
        },
        {
            "name" : "Toes.L",
            "rotation" : [
                -0.00040723991696722806,
                -0.0017622120212763548,
                0.2237735539674759,
                0.9746395945549011
            ],
            "scale" : [
                0.9999999403953552,
                0.9999999403953552,
                0.9999999403953552
            ],
            "translation" : [
                -6.091741511227156e-08,
                0.24149970710277557,
                1.2810298599674752e-08
            ]
        },
        {
            "children" : [
                14
            ],
            "name" : "Foot.L",
            "rotation" : [
                -0.001006032107397914,
                0.001509542460553348,
                0.5546773076057434,
                0.832063615322113
            ],
            "scale" : [
                0.9999998211860657,
                0.9999997615814209,
                0.9999998807907104
            ],
            "translation" : [
                1.5499042049782474e-08,
                0.5942190289497375,
                1.3447823299372885e-08
            ]
        },
        {
            "children" : [
                15
            ],
            "name" : "Leg.2.L",
            "rotation" : [
                -1.092021406634558e-08,
                -2.569993569068174e-07,
                -0.05325760319828987,
                0.998580813407898
            ],
            "translation" : [
                1.2029344986785873e-07,
                0.6711577773094177,
                -5.535499170150615e-09
            ]
        },
        {
            "children" : [
                16
            ],
            "name" : "Leg.1.L",
            "rotation" : [
                0.3979940712451935,
                -0.5844659805297852,
                -0.39799392223358154,
                0.5844664573669434
            ],
            "scale" : [
                1.0000001192092896,
                1,
                1.0000044107437134
            ],
            "translation" : [
                0.16073545813560486,
                0.05308789014816284,
                0.05919899046421051
            ]
        },
        {
            "name" : "Toes.R",
            "rotation" : [
                -0.0004072397423442453,
                0.001762211904861033,
                -0.2237735241651535,
                0.9746395349502563
            ],
            "scale" : [
                1,
                1,
                0.9999999403953552
            ],
            "translation" : [
                2.2196452675871114e-08,
                0.2414999157190323,
                1.3355151651239794e-08
            ]
        },
        {
            "children" : [
                18
            ],
            "name" : "Foot.R",
            "rotation" : [
                -0.001006031408905983,
                -0.0015095435082912445,
                -0.5546773672103882,
                0.8320635557174683
            ],
            "scale" : [
                1,
                1.0000001192092896,
                0.9999998807907104
            ],
            "translation" : [
                6.240646666100247e-09,
                0.5942189693450928,
                4.362111027944593e-08
            ]
        },
        {
            "children" : [
                19
            ],
            "name" : "Leg.2.R",
            "rotation" : [
                -3.802123949014913e-09,
                3.08928491676852e-07,
                0.053257618099451065,
                0.998580813407898
            ],
            "translation" : [
                7.290685388738893e-09,
                0.6711577773094177,
                -1.1132201827024346e-08
            ]
        },
        {
            "children" : [
                20
            ],
            "name" : "Leg.1.R",
            "rotation" : [
                0.7035265564918518,
                0.07105022668838501,
                0.7035297751426697,
                0.07104980945587158
            ],
            "scale" : [
                1,
                1.0000001192092896,
                1.0000044107437134
            ],
            "translation" : [
                -0.16427254676818848,
                0.05308777838945389,
                0.05919898301362991
            ]
        },
        {
            "children" : [
                13,
                17,
                21
            ],
            "name" : "Spine.1",
            "rotation" : [
                0.07555805146694183,
                1.1886858430898428e-07,
                9.007219858858662e-09,
                0.997141420841217
            ],
            "scale" : [
                1,
                1.0000001192092896,
                1.0000001192092896
            ],
            "translation" : [
                0.0017685480415821075,
                1.3643893003463745,
                0
            ]
        },
        {
            "mesh" : 0,
            "name" : "Body",
            "skin" : 0
        },
        {
            "children" : [
                23,
                22
            ],
            "name" : "Armature"
        }
    ],
    "cameras" : [
        {
            "name" : "Camera.002",
            "perspective" : {
                "aspectRatio" : 1.7777777777777777,
                "yfov" : 0.15545541313345093,
                "zfar" : 1000,
                "znear" : 0.10000000149011612
            },
            "type" : "perspective"
        }
    ],
    "materials" : [
        {
            "doubleSided" : true,
            "extras" : {
                "ProgramType" : "Contour"
            },
            "name" : "Material.001",
            "pbrMetallicRoughness" : {}
        }
    ],
    "meshes" : [
        {
            "name" : "Cube",
            "primitives" : [
                {
                    "attributes" : {
                        "POSITION" : 0,
                        "NORMAL" : 1,
                        "TEXCOORD_0" : 2,
                        "COLOR_0" : 3,
                        "JOINTS_0" : 4,
                        "WEIGHTS_0" : 5
                    },
                    "indices" : 6,
                    "material" : 0
                }
            ]
        }
    ],
    "skins" : [
        {
            "inverseBindMatrices" : 7,
            "joints" : [
                22,
                13,
                12,
                3,
                2,
                7,
                6,
                5,
                4,
                11,
                10,
                9,
                8,
                17,
                16,
                15,
                14,
                21,
                20,
                19,
                18
            ],
            "name" : "Armature"
        }
    ],
    "accessors" : [
        {
            "bufferView" : 0,
            "componentType" : 5126,
            "count" : 1107,
            "max" : [
                0.5018765926361084,
                2.8613834381103516,
                0.4155852198600769
            ],
            "min" : [
                -0.5029306411743164,
                -0.0034712553024291992,
                -0.1991753876209259
            ],
            "type" : "VEC3"
        },
        {
            "bufferView" : 1,
            "componentType" : 5126,
            "count" : 1107,
            "type" : "VEC3"
        },
        {
            "bufferView" : 2,
            "componentType" : 5126,
            "count" : 1107,
            "type" : "VEC2"
        },
        {
            "bufferView" : 3,
            "componentType" : 5126,
            "count" : 1107,
            "type" : "VEC4"
        },
        {
            "bufferView" : 4,
            "componentType" : 5123,
            "count" : 1107,
            "type" : "VEC4"
        },
        {
            "bufferView" : 5,
            "componentType" : 5126,
            "count" : 1107,
            "type" : "VEC4"
        },
        {
            "bufferView" : 6,
            "componentType" : 5123,
            "count" : 5532,
            "type" : "SCALAR"
        },
        {
            "bufferView" : 7,
            "componentType" : 5126,
            "count" : 21,
            "type" : "MAT4"
        }
    ],
    "bufferViews" : [
        {
            "buffer" : 0,
            "byteLength" : 13284,
            "byteOffset" : 0
        },
        {
            "buffer" : 0,
            "byteLength" : 13284,
            "byteOffset" : 13284
        },
        {
            "buffer" : 0,
            "byteLength" : 8856,
            "byteOffset" : 26568
        },
        {
            "buffer" : 0,
            "byteLength" : 17712,
            "byteOffset" : 35424
        },
        {
            "buffer" : 0,
            "byteLength" : 8856,
            "byteOffset" : 53136
        },
        {
            "buffer" : 0,
            "byteLength" : 17712,
            "byteOffset" : 61992
        },
        {
            "buffer" : 0,
            "byteLength" : 11064,
            "byteOffset" : 79704
        },
        {
            "buffer" : 0,
            "byteLength" : 1344,
            "byteOffset" : 90768
        }
    ],
    "buffers" : [
        {
            "byteLength" : 92112,
            "uri" : "data:application/octet-stream;base64,"
        }
    ]
}
