{
    "asset" : {
        "generator" : "Khronos glTF Blender I/O v1.1.45",
        "version" : "2.0"
    },
    "scene" : 0,
    "scenes" : [
        {
            "name" : "Scene",
            "nodes" : [
                0
            ]
        }
    ],
    "nodes" : [
        {
            "mesh" : 0,
            "name" : "Cube",
            "rotation" : [
                -0.7071065902709961,
                0,
                0,
                0.7071069478988647
            ]
        }
    ],
    "materials" : [
        {
            "doubleSided" : true,
            "emissiveFactor" : [
                0,
                0,
                0
            ],
            "extras" : {
                "CustomPropYoo" : 1,
                "CustomPropBoo" : "xdddd",
                "prop" : [
                    1,
                    0.0009013220551423728,
                    0
                ],
                "ProgramType" : "Contour"
            },
            "name" : "MyMaterial_COLOR_0_COLOR_0",
            "pbrMetallicRoughness" : {
                "metallicFactor" : 1,
                "roughnessFactor" : 1
            }
        }
    ],
    "meshes" : [
        {
            "extras" : {
                "CustomProperty" : "Potato",
                "DoubleProperty" : 0.9533332586288452,
                "targetNames" : [
                    "Key 1"
                ]
            },
            "name" : "Cube.001",
            "primitives" : [
                {
                    "attributes" : {
                        "POSITION" : 0,
                        "NORMAL" : 1,
                        "TEXCOORD_0" : 2,
                        "COLOR_0" : 3,
                        "COLOR_1" : 4
                    },
                    "indices" : 5,
                    "material" : 0,
                    "targets" : [
                        {
                            "POSITION" : 6,
                            "NORMAL" : 7
                        }
                    ]
                }
            ],
            "weights" : [
                0.22033900022506714
            ]
        }
    ],
    "accessors" : [
        {
            "bufferView" : 0,
            "componentType" : 5126,
            "count" : 30,
            "max" : [
                0.5,
                0.5000000596046448,
                0.5000000596046448
            ],
            "min" : [
                -0.5,
                -0.5000000596046448,
                -0.5000000596046448
            ],
            "type" : "VEC3"
        },
        {
            "bufferView" : 1,
            "componentType" : 5126,
            "count" : 30,
            "type" : "VEC3"
        },
        {
            "bufferView" : 2,
            "componentType" : 5126,
            "count" : 30,
            "type" : "VEC2"
        },
        {
            "bufferView" : 3,
            "componentType" : 5126,
            "count" : 30,
            "type" : "VEC4"
        },
        {
            "bufferView" : 4,
            "componentType" : 5126,
            "count" : 30,
            "type" : "VEC4"
        },
        {
            "bufferView" : 5,
            "componentType" : 5123,
            "count" : 36,
            "type" : "SCALAR"
        },
        {
            "bufferView" : 6,
            "componentType" : 5126,
            "count" : 30,
            "max" : [
                0,
                0,
                4.76837158203125e-07
            ],
            "min" : [
                0,
                -1.7027807235717773,
                0
            ],
            "type" : "VEC3"
        },
        {
            "bufferView" : 7,
            "componentType" : 5126,
            "count" : 30,
            "type" : "VEC3"
        }
    ],
    "bufferViews" : [
        {
            "buffer" : 0,
            "byteLength" : 360,
            "byteOffset" : 0
        },
        {
            "buffer" : 0,
            "byteLength" : 360,
            "byteOffset" : 360
        },
        {
            "buffer" : 0,
            "byteLength" : 240,
            "byteOffset" : 720
        },
        {
            "buffer" : 0,
            "byteLength" : 480,
            "byteOffset" : 960
        },
        {
            "buffer" : 0,
            "byteLength" : 480,
            "byteOffset" : 1440
        },
        {
            "buffer" : 0,
            "byteLength" : 72,
            "byteOffset" : 1920
        },
        {
            "buffer" : 0,
            "byteLength" : 360,
            "byteOffset" : 1992
        },
        {
            "buffer" : 0,
            "byteLength" : 360,
            "byteOffset" : 2352
        }
    ],
    "buffers" : [
        {
            "byteLength" : 2712,
            "uri" : "data:application/octet-stream;base64,"
        }
    ]
}
