{
    "asset" : {
        "generator" : "Khronos glTF Blender I/O v1.1.45",
        "version" : "2.0"
    },
    "scene" : 0,
    "scenes" : [
        {
            "name" : "Scene",
            "nodes" : [
                0
            ]
        }
    ],
    "nodes" : [
        {
            "mesh" : 0,
            "name" : "Cube"
        }
    ],
    "materials" : [
        {
            "doubleSided" : true,
            "extras" : {
                "CustomPropYoo" : 1,
                "CustomPropBoo" : "xdddd",
                "prop" : [
                    1,
                    0.0009013220551423728,
                    0
                ],
                "ProgramType" : "Contour"
            },
            "name" : "MyMaterial_COLOR_0_COLOR_0_COLOR_0",
            "pbrMetallicRoughness" : {}
        }
    ],
    "meshes" : [
        {
            "extras" : {
                "CustomProperty" : "Potato",
                "DoubleProperty" : 0.9533332586288452
            },
            "name" : "Cube.001",
            "primitives" : [
                {
                    "attributes" : {
                        "POSITION" : 0,
                        "NORMAL" : 1,
                        "TEXCOORD_0" : 2,
                        "COLOR_0" : 3,
                        "COLOR_1" : 4
                    },
                    "indices" : 5,
                    "material" : 0
                }
            ]
        }
    ],
    "accessors" : [
        {
            "bufferView" : 0,
            "componentType" : 5126,
            "count" : 33,
            "max" : [
                0.5,
                0.5000000596046448,
                0.5000000596046448
            ],
            "min" : [
                -0.5,
                -0.5000000596046448,
                -0.5000000596046448
            ],
            "type" : "VEC3"
        },
        {
            "bufferView" : 1,
            "componentType" : 5126,
            "count" : 33,
            "type" : "VEC3"
        },
        {
            "bufferView" : 2,
            "componentType" : 5126,
            "count" : 33,
            "type" : "VEC2"
        },
        {
            "bufferView" : 3,
            "componentType" : 5126,
            "count" : 33,
            "type" : "VEC4"
        },
        {
            "bufferView" : 4,
            "componentType" : 5126,
            "count" : 33,
            "type" : "VEC4"
        },
        {
            "bufferView" : 5,
            "componentType" : 5123,
            "count" : 36,
            "type" : "SCALAR"
        }
    ],
    "bufferViews" : [
        {
            "buffer" : 0,
            "byteLength" : 396,
            "byteOffset" : 0
        },
        {
            "buffer" : 0,
            "byteLength" : 396,
            "byteOffset" : 396
        },
        {
            "buffer" : 0,
            "byteLength" : 264,
            "byteOffset" : 792
        },
        {
            "buffer" : 0,
            "byteLength" : 528,
            "byteOffset" : 1056
        },
        {
            "buffer" : 0,
            "byteLength" : 528,
            "byteOffset" : 1584
        },
        {
            "buffer" : 0,
            "byteLength" : 72,
            "byteOffset" : 2112
        }
    ],
    "buffers" : [
        {
            "byteLength" : 2184,
            "uri" : "data:application/octet-stream;base64,"
        }
    ]
}
